<?xml version="1.0" encoding="UTF-8" standalone="no"?>
<svg width="72" height="72" viewBox="0 0 72 72" fill="none" xmlns="http://www.w3.org/2000/svg">
<g clip-path="url(#clip0_245_6)">
<path fill-rule="evenodd" clip-rule="evenodd" d="M36 71C55.33 71 71 55.33 71 36C71 16.67 55.33 1 36 1C16.67 1 1 16.67 1 36C1 55.33 16.67 71 36 71Z" stroke="#F2F4FC"/>
<path fill-rule="evenodd" clip-rule="evenodd" d="M36 60C49.2548 60 60 49.2548 60 36C60 22.7452 49.2548 12 36 12C22.7452 12 12 22.7452 12 36C12 49.2548 22.7452 60 36 60Z" fill="#C3F9E6"/>
<path d="M30.1664 29.0007C29.9356 29.0007 29.7101 29.0691 29.5182 29.1973C29.3263 29.3255 29.1768 29.5077 29.0885 29.7209C29.0002 29.9341 28.9771 30.1686 29.0221 30.3949C29.0671 30.6213 29.1782 30.8291 29.3414 30.9923C29.5046 31.1555 29.7124 31.2666 29.9388 31.3116C30.1651 31.3566 30.3996 31.3335 30.6128 31.2452C30.826 31.1569 31.0082 31.0074 31.1364 30.8155C31.2646 30.6236 31.333 30.3981 31.333 30.1673C31.333 29.8579 31.2101 29.5612 30.9913 29.3424C30.7725 29.1236 30.4758 29.0007 30.1664 29.0007ZM47.328 35.744L36.268 24.7073C36.1592 24.59 36.0275 24.4964 35.881 24.4322C35.7345 24.3679 35.5763 24.3345 35.4164 24.334H28.4164C28.2628 24.3331 28.1106 24.3625 27.9685 24.4206C27.8263 24.4787 27.697 24.5642 27.588 24.6723L24.6714 27.5773C24.5632 27.6864 24.4777 27.8156 24.4196 27.9578C24.3616 28.0999 24.3321 28.2521 24.333 28.4057V35.4057C24.3373 35.7146 24.4582 36.0104 24.6714 36.234L35.743 47.3173C35.9666 47.5305 36.2625 47.6514 36.5714 47.6557C36.7249 47.6566 36.8771 47.6271 37.0193 47.5691C37.1614 47.511 37.2907 47.4255 37.3997 47.3173L47.328 37.389C47.4362 37.28 47.5217 37.1507 47.5798 37.0086C47.6378 36.8664 47.6673 36.7142 47.6664 36.5607C47.6592 36.2558 47.5385 35.9646 47.328 35.744V35.744ZM36.5714 44.8557L26.6664 34.939V28.884L28.883 26.6673H34.9264L44.843 36.5723L36.5714 44.8557Z" fill="black"/>
</g>
<defs>
<clipPath id="clip0_245_6">
<rect width="72" height="72" fill="white"/>
</clipPath>
</defs>
</svg>
