<?xml version="1.0" encoding="UTF-8" standalone="no"?>
<svg width="72" height="72" viewBox="0 0 72 72" fill="none" xmlns="http://www.w3.org/2000/svg">
<g clip-path="url(#clip0_245_22)">
<path fill-rule="evenodd" clip-rule="evenodd" d="M36 71C55.33 71 71 55.33 71 36C71 16.67 55.33 1 36 1C16.67 1 1 16.67 1 36C1 55.33 16.67 71 36 71Z" stroke="#F2F4FC"/>
<path fill-rule="evenodd" clip-rule="evenodd" d="M36 60C49.2548 60 60 49.2548 60 36C60 22.7452 49.2548 12 36 12C22.7452 12 12 22.7452 12 36C12 49.2548 22.7452 60 36 60Z" fill="#9FE2FF"/>
<path d="M31 45H28C27.4696 45 26.9609 44.7893 26.5858 44.4142C26.2107 44.0391 26 43.5304 26 43V36C26 35.4696 26.2107 34.9609 26.5858 34.5858C26.9609 34.2107 27.4696 34 28 34H31M38 32V28C38 27.2044 37.6839 26.4413 37.1213 25.8787C36.5587 25.3161 35.7956 25 35 25L31 34V45H42.28C42.7623 45.0055 43.2304 44.8364 43.5979 44.524C43.9654 44.2116 44.2077 43.7769 44.28 43.3L45.66 34.3C45.7035 34.0134 45.6842 33.7207 45.6033 33.4423C45.5225 33.1638 45.3821 32.9063 45.1919 32.6875C45.0016 32.4687 44.7661 32.2939 44.5016 32.1752C44.2371 32.0565 43.9499 31.9967 43.66 32H38Z" stroke="black" stroke-width="2" stroke-linecap="round" stroke-linejoin="round"/>
</g>
<defs>
<clipPath id="clip0_245_22">
<rect width="72" height="72" fill="white"/>
</clipPath>
</defs>
</svg>
