<?xml version="1.0" encoding="UTF-8" standalone="no"?>
<svg width="72" height="72" viewBox="0 0 72 72" fill="none" xmlns="http://www.w3.org/2000/svg">
<g clip-path="url(#clip0_245_14)">
<path fill-rule="evenodd" clip-rule="evenodd" d="M36 71C55.33 71 71 55.33 71 36C71 16.67 55.33 1 36 1C16.67 1 1 16.67 1 36C1 55.33 16.67 71 36 71Z" stroke="#F2F4FC"/>
<path fill-rule="evenodd" clip-rule="evenodd" d="M36 60C49.2548 60 60 49.2548 60 36C60 22.7452 49.2548 12 36 12C22.7452 12 12 22.7452 12 36C12 49.2548 22.7452 60 36 60Z" fill="#FFC7B7"/>
<path d="M44.902 27.259C44.7665 27.1494 44.6081 27.0715 44.4385 27.0311C44.2689 26.9907 44.0924 26.9889 43.922 27.0257C42.6753 27.287 41.3884 27.2903 40.1404 27.0355C38.8924 26.7807 37.7098 26.2731 36.6653 25.544C36.47 25.4085 36.238 25.3359 36.0003 25.3359C35.7626 25.3359 35.5306 25.4085 35.3353 25.544C34.2909 26.2731 33.1083 26.7807 31.8603 27.0355C30.6123 27.2903 29.3253 27.287 28.0787 27.0257C27.9083 26.9889 27.7318 26.9907 27.5622 27.0311C27.3926 27.0715 27.2342 27.1494 27.0987 27.259C26.9633 27.3688 26.8543 27.5076 26.7796 27.665C26.7049 27.8225 26.6664 27.9947 26.667 28.169V36.8607C26.666 38.5334 27.0646 40.1821 27.8296 41.6696C28.5947 43.1571 29.704 44.4403 31.0653 45.4124L35.3237 48.4457C35.5213 48.5864 35.7578 48.662 36.0003 48.662C36.2429 48.662 36.4794 48.5864 36.677 48.4457L40.9353 45.4124C42.2966 44.4403 43.406 43.1571 44.171 41.6696C44.9361 40.1821 45.3347 38.5334 45.3337 36.8607V28.169C45.3343 27.9947 45.2958 27.8225 45.2211 27.665C45.1464 27.5076 45.0374 27.3688 44.902 27.259ZM43.0003 36.8607C43.0012 38.1612 42.6915 39.4432 42.0969 40.5999C41.5023 41.7566 40.6401 42.7545 39.582 43.5107L36.0003 46.0657L32.4187 43.5107C31.3605 42.7545 30.4983 41.7566 29.9037 40.5999C29.3092 39.4432 28.9994 38.1612 29.0003 36.8607V29.5107C31.4462 29.72 33.8957 29.1525 36.0003 27.889C38.105 29.1525 40.5545 29.72 43.0003 29.5107V36.8607ZM37.797 34.189L34.6587 37.339L33.6203 36.289C33.4006 36.0693 33.1027 35.9459 32.792 35.9459C32.4813 35.9459 32.1834 36.0693 31.9637 36.289C31.744 36.5087 31.6206 36.8067 31.6206 37.1174C31.6206 37.428 31.744 37.726 31.9637 37.9457L33.8303 39.8124C33.9388 39.9217 34.0678 40.0085 34.21 40.0677C34.3522 40.127 34.5047 40.1575 34.6587 40.1575C34.8127 40.1575 34.9652 40.127 35.1073 40.0677C35.2495 40.0085 35.3785 39.9217 35.487 39.8124L39.5003 35.834C39.72 35.6143 39.8434 35.3164 39.8434 35.0057C39.8434 34.695 39.72 34.397 39.5003 34.1774C39.2806 33.9577 38.9827 33.8342 38.672 33.8342C38.3613 33.8342 38.0634 33.9577 37.8437 34.1774L37.797 34.189Z" fill="black"/>
</g>
<defs>
<clipPath id="clip0_245_14">
<rect width="72" height="72" fill="white"/>
</clipPath>
</defs>
</svg>
