<?xml version="1.0" encoding="UTF-8" ?>
<!DOCTYPE svg PUBLIC "-//W3C//DTD SVG 1.1//EN" "http://www.w3.org/Graphics/SVG/1.1/DTD/svg11.dtd">
<svg width="640pt" height="121pt" viewBox="0 0 640 121" version="1.1" xmlns="http://www.w3.org/2000/svg">
<g id="#0070bbff">
<path fill="#0070bb" opacity="1.00" d=" M 284.39 0.00 L 292.32 0.00 C 296.27 0.58 300.22 1.24 304.09 2.31 C 303.10 5.65 301.42 8.71 300.07 11.91 C 293.28 10.62 286.11 9.77 279.34 11.51 C 275.11 12.60 273.40 17.08 272.53 20.90 C 269.38 18.31 266.83 15.09 263.71 12.48 C 263.32 12.86 262.54 13.64 262.15 14.02 C 263.90 11.18 265.36 8.06 267.94 5.84 C 272.37 1.72 278.59 0.65 284.39 0.00 Z" />
<path fill="#0070bb" opacity="1.00" d=" M 271.56 20.44 L 272.53 20.91 C 272.14 23.52 271.67 26.12 271.27 28.73 C 280.27 28.83 289.27 28.59 298.27 28.83 C 298.20 32.11 298.11 35.39 297.99 38.67 C 304.82 30.67 315.69 25.61 326.27 28.05 C 325.04 31.30 323.64 34.48 322.42 37.73 C 313.05 36.97 302.37 39.68 297.23 48.22 C 294.46 64.22 292.08 80.31 289.35 96.32 C 285.32 96.32 281.28 96.32 277.25 96.23 C 280.36 76.92 283.46 57.60 286.63 38.29 C 280.98 38.34 275.32 38.20 269.67 38.25 C 265.17 65.82 260.76 93.42 256.29 121.00 L 254.54 121.00 C 250.34 120.41 246.10 120.21 241.88 119.79 C 243.17 111.91 244.51 104.05 245.83 96.18 C 246.44 92.58 247.00 88.97 247.63 85.37 C 250.22 70.31 252.62 55.21 255.29 40.17 C 259.32 34.34 264.56 29.37 268.63 23.54 C 269.60 22.50 270.57 21.47 271.56 20.44 Z" />
<path fill="#0070bb" opacity="1.00" d=" M 323.05 39.05 C 328.69 32.31 337.07 27.61 345.99 27.59 C 352.63 27.47 360.36 28.72 364.50 34.51 C 368.13 39.26 368.24 45.58 367.38 51.25 C 370.20 43.33 375.83 36.39 382.94 31.91 C 390.10 27.44 399.14 26.70 407.21 28.82 C 411.40 29.91 415.15 32.65 417.19 36.52 C 421.93 31.11 429.04 28.31 436.11 27.89 C 443.05 27.52 450.42 28.07 456.54 31.67 C 455.09 34.68 453.64 37.68 452.18 40.67 C 445.70 38.37 438.58 37.09 431.80 38.72 C 426.91 39.82 422.56 44.70 423.91 49.93 C 425.32 54.73 430.49 56.63 434.72 58.24 C 440.08 60.44 446.48 62.05 449.56 67.45 C 452.18 71.14 451.63 75.96 450.46 80.07 C 447.99 88.78 440.19 95.32 431.51 97.31 C 423.00 99.25 413.89 98.38 405.86 94.97 C 396.64 98.32 386.09 99.77 376.73 96.20 C 369.36 93.35 365.39 85.61 364.26 78.19 C 363.10 72.11 364.01 65.90 364.52 59.86 C 364.64 62.02 363.15 63.25 361.07 62.76 C 348.79 62.53 336.51 62.90 324.24 62.53 C 322.80 69.33 323.01 77.03 327.16 82.91 C 329.35 86.10 333.22 87.73 336.99 87.99 C 343.89 88.46 350.76 86.90 357.17 84.44 C 357.73 87.20 358.32 89.97 358.89 92.74 C 348.80 97.84 336.57 100.02 325.69 96.26 C 318.01 93.51 313.88 85.52 312.76 77.87 C 310.94 64.32 313.89 49.55 323.05 39.05 M 333.65 42.63 C 330.78 45.85 328.04 49.47 326.91 53.69 C 336.55 53.72 346.19 53.90 355.83 53.98 C 356.49 48.86 357.35 41.92 352.21 38.77 C 346.11 36.00 338.29 37.90 333.65 42.63 M 393.12 38.21 C 385.60 39.95 380.92 47.02 378.21 53.74 C 387.88 53.91 397.54 53.98 407.21 54.09 C 407.92 49.57 408.58 44.26 405.54 40.42 C 402.45 36.97 397.23 37.32 393.12 38.21 M 414.90 62.87 C 401.81 62.73 388.71 62.90 375.61 62.71 C 374.35 69.59 374.46 77.31 378.74 83.19 C 381.68 87.34 387.17 88.47 391.96 88.17 C 397.50 87.78 403.34 87.11 408.21 84.26 C 415.00 87.71 423.03 89.16 430.50 87.32 C 435.08 86.07 439.65 82.16 439.38 77.03 C 439.34 73.52 436.60 70.82 433.74 69.19 C 427.99 66.01 421.24 64.86 415.91 60.86 C 415.66 61.36 415.16 62.37 414.90 62.87 Z" />
<path fill="#0070bb" opacity="1.00" d=" M 463.40 38.43 C 473.80 27.59 491.38 24.61 504.64 31.77 C 502.90 34.65 501.26 37.59 499.39 40.39 C 492.24 37.89 483.70 36.63 476.97 40.93 C 470.13 44.92 466.65 52.60 465.11 60.06 C 463.84 66.41 462.91 73.26 465.29 79.47 C 466.85 83.69 470.73 86.74 475.07 87.70 C 481.33 89.12 487.83 88.13 494.00 86.70 C 494.15 89.70 494.63 92.69 494.50 95.71 C 484.81 98.94 473.74 100.35 464.22 95.85 C 456.94 92.48 452.42 84.77 451.78 76.93 C 450.60 63.38 453.70 48.48 463.40 38.43 Z" />
<path fill="#0070bb" opacity="1.00" d=" M 523.49 28.61 C 531.70 27.09 541.42 28.06 547.33 34.59 C 552.65 40.29 553.30 48.62 552.80 56.02 C 552.03 65.48 550.14 75.12 545.27 83.38 C 539.70 92.81 528.90 98.82 517.94 98.53 C 510.60 98.69 502.70 95.82 498.68 89.36 C 494.25 82.16 494.70 73.21 495.73 65.15 C 497.22 55.19 500.11 44.77 507.31 37.36 C 511.71 32.96 517.36 29.78 523.49 28.61 M 523.40 38.62 C 514.06 41.64 510.60 52.13 508.89 60.83 C 507.71 68.16 506.32 76.26 509.77 83.20 C 512.20 87.98 518.30 89.47 523.19 88.21 C 528.64 86.73 532.91 82.34 535.37 77.39 C 538.74 70.43 539.92 62.65 540.42 55.01 C 540.66 50.39 540.65 45.18 537.52 41.44 C 534.06 37.54 528.11 37.31 523.40 38.62 Z" />
<path fill="#0070bb" opacity="1.00" d=" M 570.15 39.21 C 577.05 31.44 587.92 25.92 598.40 28.88 C 597.05 32.08 595.86 35.35 594.37 38.49 C 585.04 37.41 574.19 40.51 569.32 49.10 C 566.70 65.01 564.12 80.94 561.62 96.87 C 557.54 96.93 553.47 96.89 549.39 96.83 C 553.06 74.36 556.71 51.90 560.28 29.42 C 563.67 29.34 567.06 29.38 570.45 29.39 C 570.37 32.66 570.29 35.93 570.15 39.21 Z" />
<path fill="#0070bb" opacity="1.00" d=" M 606.04 31.09 C 613.48 27.49 622.47 27.24 630.19 30.10 C 635.98 32.28 639.52 38.24 640.00 44.23 L 640.00 49.21 C 639.11 54.05 637.68 58.78 635.74 63.29 C 622.55 63.37 609.36 63.27 596.18 63.25 C 595.50 69.19 594.96 75.60 597.90 81.06 C 599.54 84.95 603.24 87.76 607.40 88.36 C 614.86 89.41 622.40 87.67 629.35 85.04 C 629.90 87.76 630.44 90.49 631.08 93.20 C 622.55 97.93 612.35 99.70 602.71 98.21 C 596.84 97.33 591.23 93.96 588.39 88.64 C 583.37 79.58 583.80 68.60 585.77 58.74 C 588.30 47.30 595.42 36.46 606.04 31.09 M 613.75 38.72 C 606.26 40.48 601.64 47.55 598.91 54.23 C 608.58 54.41 618.24 54.46 627.91 54.60 C 628.62 50.06 629.32 44.65 626.17 40.82 C 623.04 37.45 617.86 37.82 613.75 38.72 Z" />
<path fill="#0070bb" opacity="1.00" d=" M 157.11 52.22 C 160.45 52.41 155.55 55.18 157.11 52.22 Z" />
<path fill="#0070bb" opacity="1.00" d=" M 156.08 55.26 C 159.41 55.50 154.46 58.18 156.08 55.26 Z" />
</g>
<g id="#29abe1ff">
<path fill="#29abe1" opacity="1.00" d=" M 59.32 2.48 C 63.45 2.21 67.56 1.80 71.69 1.48 C 69.83 12.98 67.95 24.48 66.12 35.99 C 73.26 30.67 81.97 26.51 91.07 27.06 C 95.32 27.29 100.14 28.87 102.08 32.99 C 104.92 38.19 104.16 44.33 103.36 49.95 C 100.93 65.26 98.49 80.57 96.05 95.87 C 92.00 95.87 87.96 95.92 83.92 95.83 C 86.41 79.93 89.06 64.04 91.57 48.14 C 91.97 44.89 92.08 40.95 89.51 38.49 C 86.44 36.25 82.35 37.36 78.94 38.12 C 73.68 39.73 68.19 42.14 64.56 46.36 C 61.85 62.82 59.22 79.29 56.56 95.76 C 52.45 95.75 48.35 95.75 44.24 95.75 C 49.29 64.66 54.17 33.55 59.32 2.48 Z" />
<path fill="#29abe1" opacity="1.00" d=" M 213.66 2.75 C 217.84 2.38 222.02 2.03 226.21 1.70 C 223.27 20.62 219.84 39.47 217.15 58.42 C 216.75 58.89 215.94 59.82 215.53 60.29 C 212.02 57.55 209.13 54.12 205.90 51.06 C 208.45 34.95 211.05 18.85 213.66 2.75 Z" />
<path fill="#29abe1" opacity="1.00" d=" M 22.27 30.15 C 31.87 25.58 43.51 25.86 53.02 30.53 C 51.91 33.73 49.66 36.39 48.07 39.35 C 42.65 37.65 36.82 36.31 31.17 37.59 C 24.31 39.24 18.78 44.65 16.18 51.11 C 13.51 57.67 12.22 64.84 12.48 71.92 C 12.68 77.36 15.20 83.20 20.42 85.53 C 27.39 88.62 35.35 87.33 42.52 85.68 C 42.84 88.58 43.01 91.50 43.29 94.42 C 33.11 98.35 20.85 99.46 11.06 93.89 C 4.16 89.97 0.82 82.10 0.00 74.51 L 0.00 66.76 C 0.97 59.09 2.63 51.34 6.54 44.58 C 10.09 38.26 15.78 33.29 22.27 30.15 Z" />
<path fill="#29abe1" opacity="1.00" d=" M 113.17 39.23 C 118.91 32.07 127.66 27.02 137.00 27.12 C 143.94 26.98 152.12 28.63 155.90 35.12 C 159.07 39.87 158.44 45.73 158.36 51.12 C 163.96 31.29 189.87 20.75 207.60 31.34 C 205.76 34.07 204.21 36.98 202.40 39.73 C 195.11 37.18 186.34 35.94 179.56 40.51 C 172.48 44.84 169.24 53.07 167.79 60.89 C 166.68 67.17 165.93 74.07 168.82 80.01 C 170.69 83.91 174.65 86.43 178.82 87.21 C 184.86 88.38 191.07 87.41 196.98 86.03 C 196.95 88.98 197.96 92.19 197.31 94.97 C 188.60 98.14 178.79 99.32 169.87 96.29 C 163.80 94.27 158.70 89.49 156.50 83.47 C 153.26 75.30 154.35 66.29 155.83 57.87 C 155.27 59.36 154.87 60.91 154.03 62.28 C 140.89 62.33 127.74 62.02 114.61 62.30 C 113.99 68.37 113.47 74.90 116.61 80.42 C 118.44 84.53 122.69 87.12 127.10 87.46 C 134.17 88.06 141.28 86.54 147.83 83.93 C 148.39 86.71 148.98 89.48 149.55 92.26 C 139.68 97.30 127.79 99.40 117.05 96.05 C 108.88 93.47 104.40 85.05 103.37 77.02 C 101.72 63.85 104.50 49.59 113.17 39.23 M 132.43 37.59 C 124.86 39.29 120.13 46.39 117.42 53.16 C 127.10 53.31 136.79 53.41 146.47 53.50 C 147.02 49.05 147.80 43.90 144.91 40.05 C 141.93 36.40 136.59 36.72 132.43 37.59 M 157.11 52.22 C 155.55 55.18 160.45 52.41 157.11 52.22 M 156.08 55.26 C 154.46 58.18 159.41 55.50 156.08 55.26 Z" />
<path fill="#29abe1" opacity="1.00" d=" M 222.60 68.84 C 225.39 66.09 228.16 63.33 230.95 60.58 C 236.41 68.91 242.28 76.97 247.63 85.37 C 247.00 88.97 246.44 92.58 245.83 96.18 C 243.97 96.19 242.11 96.18 240.26 96.15 C 234.42 87.01 228.42 77.98 222.60 68.84 Z" />
<path fill="#29abe1" opacity="1.00" d=" M 198.65 96.12 C 200.27 85.59 202.11 75.09 203.65 64.55 C 207.19 68.08 210.70 71.65 214.27 75.15 C 213.27 82.16 212.06 89.13 210.93 96.12 C 206.84 96.13 202.75 96.13 198.65 96.12 Z" />
</g>
<g id="#ff1d24ff">
<path fill="#ff1d24" opacity="1.00" d=" M 263.71 12.48 C 266.83 15.09 269.38 18.31 272.53 20.90 L 272.53 20.91 L 271.56 20.44 C 270.57 21.47 269.60 22.50 268.63 23.54 C 255.92 35.72 243.53 48.25 230.95 60.58 C 228.16 63.33 225.39 66.09 222.60 68.84 C 220.15 71.26 217.70 73.67 215.25 76.08 C 215.00 75.85 214.51 75.38 214.27 75.15 C 210.70 71.65 207.19 68.08 203.65 64.55 C 201.21 62.11 198.72 59.74 196.32 57.26 C 198.94 54.63 201.62 52.06 204.23 49.42 C 204.65 49.83 205.48 50.65 205.90 51.06 C 209.13 54.12 212.02 57.55 215.53 60.29 C 215.94 59.82 216.75 58.89 217.15 58.42 C 231.99 43.46 247.25 28.92 262.15 14.02 C 262.54 13.64 263.32 12.86 263.71 12.48 Z" />
</g>
</svg>
